<svg xmlns="http://www.w3.org/2000/svg" width="887.4" height="902.752" viewBox="0 0 887.4 902.752">
  <path id="Union_3" data-name="Union 3" d="M-1602.779,973.087a338.349,338.349,0,0,1-63.068-9.307,333.963,333.963,0,0,1-58.486-20.331,335.18,335.18,0,0,1-52.858-30.189,337.631,337.631,0,0,1-46.18-38.88,338.386,338.386,0,0,1-38.453-46.408A336.524,336.524,0,0,1-1891.5,775.2a334.188,334.188,0,0,1-19.846-57.963,334.819,334.819,0,0,1-8.676-56.9,53.867,53.867,0,0,0,5.028,11.369,53.95,53.95,0,0,0,11,13.276,53.173,53.173,0,0,0,14.733,9.145,53.022,53.022,0,0,0,17.5,3.936,52.794,52.794,0,0,0,21.019-3.142,53.286,53.286,0,0,0,17.588-10.648,53.771,53.771,0,0,0,12.345-16.512,53.926,53.926,0,0,0,5.3-20.735,53.932,53.932,0,0,0-3.1-21.175,53.769,53.769,0,0,0-10.552-17.712,53.3,53.3,0,0,0-16.377-12.429,52.828,52.828,0,0,0-20.576-5.322,52.9,52.9,0,0,0-19.668,2.669,53.245,53.245,0,0,0-16.8,9.279,53.941,53.941,0,0,0-18.06,28.037c.077-3.283.2-6.574.373-9.832a336.881,336.881,0,0,1,13.7-79.141,333.54,333.54,0,0,1,30.892-71.346,336.457,336.457,0,0,1,45.714-61.42q3.729-3.972,7.586-7.822-6.689.585-13.629.585a160.927,160.927,0,0,1-19-1.4q-11.4-1.4-23.4-3.8t-23.4-5.4a144.786,144.786,0,0,1-19-6.2,195.565,195.565,0,0,1-23.2,10.8,77.911,77.911,0,0,1-29.2,5.6q-9.2,0-13.2-1.6t-4-6.4a17.97,17.97,0,0,1,1.2-5.8q1.2-3.4,3.2-3.4a3.278,3.278,0,0,1,2,1.2,9.479,9.479,0,0,0,7.2,3.6q4.8.4,10.4.4a25.9,25.9,0,0,0,15.2-5.8,31.209,31.209,0,0,0,10-14.6A135.592,135.592,0,0,0-1938,351q1.6-12,2.6-28.8t1.6-37.4q.6-20.6.6-43.4,0-52-2.8-81t-7.2-33.4a23.723,23.723,0,0,0-11-4.8,74.75,74.75,0,0,0-13.4-1.2q-3.2,0-6.4.2t-5.2.2a4.558,4.558,0,0,1-3.8-1.8,6.1,6.1,0,0,1-1.4-3.8q0-7.2,5.2-7.2,2.8,0,10,.6t16.6,1.2q9.4.6,19.8,1t18.8.4a57.508,57.508,0,0,0,19.4-3.2q9-3.2,18.6-7.2a183.747,183.747,0,0,1,21-7.2,98.878,98.878,0,0,1,26.6-3.2q39.2,0,67.4,11.2t46.2,30.2a120.57,120.57,0,0,1,26.6,43.6,153.42,153.42,0,0,1,8.6,51,186.628,186.628,0,0,1-11,62.4,185.942,185.942,0,0,1-31.4,56.2,159.758,159.758,0,0,1-49.4,40.4,128.419,128.419,0,0,1-27.393,10.73,248.036,248.036,0,0,0-13.945,29.217,248.469,248.469,0,0,0-17.372,79.355,250.509,250.509,0,0,0,2.48,50.7,247.887,247.887,0,0,0,12.231,47.745,250,250,0,0,0,21.021,43.726,252.775,252.775,0,0,0,28.849,38.649,253.838,253.838,0,0,0,35.717,32.512,253.039,253.039,0,0,0,41.623,25.317,252.653,252.653,0,0,0,46.567,17.062,256.242,256.242,0,0,0,50.55,7.746,256.312,256.312,0,0,0,51.083-2.42,252.725,252.725,0,0,0,48.1-12.1,253.068,253.068,0,0,0,44.041-20.828,253.842,253.842,0,0,0,38.92-28.6,252.646,252.646,0,0,0,32.73-35.42,250.032,250.032,0,0,0,25.477-41.289,247.968,247.968,0,0,0,17.155-46.2,250.6,250.6,0,0,0,7.766-50.166,248.628,248.628,0,0,0-8.392-78.617,248.706,248.706,0,0,0-29.361-66.829,338.293,338.293,0,0,1,30.019,30.017,337.893,337.893,0,0,1,37.325,51.382,335.3,335.3,0,0,1,27.148,57.923,333.692,333.692,0,0,1,15.749,63.111,337.882,337.882,0,0,1,3.132,66.942c-.171,3.257-.391,6.543-.657,9.816a53.939,53.939,0,0,0-15.031-29.77,53.25,53.25,0,0,0-15.736-10.984,52.9,52.9,0,0,0-19.281-4.71,52.805,52.805,0,0,0-21.019,3.142,53.3,53.3,0,0,0-17.587,10.648,53.764,53.764,0,0,0-12.345,16.513,53.922,53.922,0,0,0-5.3,20.734,53.932,53.932,0,0,0,3.1,21.175,53.735,53.735,0,0,0,10.551,17.713,53.307,53.307,0,0,0,16.378,12.428,52.811,52.811,0,0,0,20.576,5.321,53,53,0,0,0,17.816-2.084,53.163,53.163,0,0,0,15.608-7.555,53.939,53.939,0,0,0,12.328-12.053,53.8,53.8,0,0,0,6.189-10.781,334.836,334.836,0,0,1-14.575,55.683,334.156,334.156,0,0,1-25.8,55.571,336.562,336.562,0,0,1-35.027,49.378,338.3,338.3,0,0,1-43.093,42.134,337.577,337.577,0,0,1-49.991,33.84,335.209,335.209,0,0,1-55.724,24.5,333.92,333.92,0,0,1-60.291,14.106A337.192,337.192,0,0,1-1585,973.552Q-1593.893,973.552-1602.779,973.087ZM-1850.8,107.2a45.985,45.985,0,0,0-12.4,3.8,42.423,42.423,0,0,0-10.8,7.2,21.452,21.452,0,0,0-6.4,11.2,130.047,130.047,0,0,0-2.2,14.4q-1,9.2-2,21.4t-1.4,26.4q-.4,14.2-.4,29.4,0,34.4.2,57.6t.6,37.6q.4,14.4,1,21.4t1,9.4a33.651,33.651,0,0,0,5.8,13.4,54.522,54.522,0,0,0,12,12.2,61.879,61.879,0,0,0,17.2,9,66.171,66.171,0,0,0,21.8,3.4,80.317,80.317,0,0,0,26.239-4.131q12.469-10.44,25.9-19.642-4.154,5.109-8.021,10.409A97.69,97.69,0,0,0-1756.2,343.6a144.193,144.193,0,0,0,17.8-42.6,202.055,202.055,0,0,0,6-49.2,216.152,216.152,0,0,0-6.6-53,151.255,151.255,0,0,0-20.2-46.8,109.905,109.905,0,0,0-33.8-33.2q-20.2-12.6-47-12.6A71.885,71.885,0,0,0-1850.8,107.2Zm278.331,564.56a119.642,119.642,0,0,1-23.823-3.676,118.246,118.246,0,0,1-21.942-8.111,118.925,118.925,0,0,1-19.61-12.042,119.859,119.859,0,0,1-16.826-15.47,120.08,120.08,0,0,1-13.587-18.392,119.407,119.407,0,0,1-9.9-20.812,118.934,118.934,0,0,1-5.752-22.726,120.475,120.475,0,0,1-1.156-24.138,120.453,120.453,0,0,1,3.672-23.885,118.916,118.916,0,0,1,8.1-22,119.362,119.362,0,0,1,12.018-19.663,120.146,120.146,0,0,1,15.435-16.872,119.915,119.915,0,0,1,18.35-13.626,118.887,118.887,0,0,1,20.762-9.926,118.2,118.2,0,0,1,22.669-5.773,119.6,119.6,0,0,1,24.077-1.165,119.662,119.662,0,0,1,23.824,3.676,118.24,118.24,0,0,1,21.942,8.111,118.916,118.916,0,0,1,19.61,12.042,119.876,119.876,0,0,1,16.826,15.47,120.026,120.026,0,0,1,13.587,18.392,119.417,119.417,0,0,1,9.9,20.812,118.936,118.936,0,0,1,5.753,22.726,120.472,120.472,0,0,1,1.156,24.138,120.5,120.5,0,0,1-3.673,23.884,118.892,118.892,0,0,1-8.1,22,119.393,119.393,0,0,1-12.017,19.663,120.1,120.1,0,0,1-15.436,16.871,119.862,119.862,0,0,1-18.35,13.627,118.923,118.923,0,0,1-20.762,9.926,118.193,118.193,0,0,1-22.67,5.773,119.177,119.177,0,0,1-17.789,1.33Q-1569.325,671.924-1572.468,671.76ZM-1670,459.8q-.8,0-4-2.2a6.738,6.738,0,0,1-3.2-5.8q0-2,6.6-5.8t15.8-8q9.2-4.2,19.2-8t17.2-5.8q2-2.8,3.4-15.8t2.4-38q1-25,1.6-62.6t1-90q0-14.4-.4-29.4t-1.2-28a222.579,222.579,0,0,0-2.4-22.6q-1.6-9.6-4-13.6-2-2.8-7.4-3.8a69.917,69.917,0,0,0-12.6-1h-20.6a25.787,25.787,0,0,1-5.4-.6,13.252,13.252,0,0,1-4.6-1.8,3.681,3.681,0,0,1-1.8-3.2q0-4.4,1.2-6.2t10.8-1.8q4,0,10,.4t12.2.6q6.2.2,12.4.6t11,.4a261.512,261.512,0,0,0,31.8-2.4q19-2.4,39-3.2,14.8-.4,30.2-.6t28.8-.4q13.4-.2,23.2-.4t13.4-1a116.8,116.8,0,0,1,8-19.4q4.4-8.2,9.2-8.6a15.267,15.267,0,0,1,5.4,1.4q3.4,1.4,3.4,3.8a15.8,15.8,0,0,0-2,2.4A7.7,7.7,0,0,0-1424,83a99.476,99.476,0,0,0-8.6,21.6q-3.8,13.2-6.4,27.2t-3.8,27.2a100.121,100.121,0,0,0,0,22q-1.2,6-4.8,6-6.4,0-7.8-2.2a5.151,5.151,0,0,1-.6-4.6,51.833,51.833,0,0,0,1.2-8.2q.4-5,.4-8.2a23.775,23.775,0,0,0-6.4-16.6q-6.4-7-17.2-11.6a110.874,110.874,0,0,0-25.4-7,191.1,191.1,0,0,0-31-2.4q-4.4,0-11.8.2t-11,3.4a103.989,103.989,0,0,0-1.6,13.6q-.8,10.4-1.4,24.6t-1,30.4q-.4,16.2-.6,31.4t-.4,27.6q-.2,12.4-.2,18.4,8,.4,15.4.4h14.6q24,.4,42.2-1t24.2-3.4a14.547,14.547,0,0,0,5.8-3.4,22.723,22.723,0,0,0,3.6-4.6,38.254,38.254,0,0,1,2.8-4.2,3.885,3.885,0,0,1,3-1.8,5.759,5.759,0,0,1,4,2q2,2,1.2,3.6a54.359,54.359,0,0,0-4.4,12.2,170.91,170.91,0,0,0-3.4,17.2q-1.4,9.4-2.4,19.4t-1,18.8a25.61,25.61,0,0,0,.2,3.2,29.284,29.284,0,0,1,.2,3.6q0,1.2-1.8,1.8a11.315,11.315,0,0,1-3.6.6,13.989,13.989,0,0,1-3.4-.4q-1.6-.4-1.6-1.6a50.887,50.887,0,0,0-.4-5.8,23.115,23.115,0,0,0-1.8-6.6,20.476,20.476,0,0,0-4.4-6.2,23.2,23.2,0,0,0-8.2-5l-6-1.6q-5.6-1.2-12.4-2t-14.4-1.2q-7.6-.4-15-.6t-13.8-.2h-12.4a24.8,24.8,0,0,0-4.8.4q-2,.4-2,1.2,0,10.4.2,24.2t.8,27.6q.6,13.8,1.4,25.4t2.4,16.8q.8,3.2,6.8,4.6a60.071,60.071,0,0,0,13.6,1.4q3.2,0,6.6-.2t7.8-.2q4.4,0,6.8,2a6.058,6.058,0,0,1,2.4,4.8,23.279,23.279,0,0,1-.6,5.6q-.6,2.4-8.6,2.4-3.2,0-10.2-.4t-15.2-.8q-8.2-.4-17,0a122.565,122.565,0,0,0-15.6,1.6q-16,3.2-30,7.4t-25.2,8.6a161.685,161.685,0,0,0-18.8,8.6q-7.6,4.2-10.8,7.8-1.6,2-2.4,2Zm530.8-57.6q-9.6-5.2-12.8-10-3.2.4-8.6,1t-11,1q-5.6.4-10.4.8t-6.8.4a18.578,18.578,0,0,1-5.2-.6q-2-.6-3-4a48.977,48.977,0,0,1-1.4-10.2q-.4-6.8-.4-19.2-16,15.2-39.4,25.8t-57,11a149.014,149.014,0,0,1-47.6-9.8A112.928,112.928,0,0,1-1381,364q-16.2-15.8-25.4-39.4t-8.8-54.8q.4-20.4,8-43a284.158,284.158,0,0,1,18.2-42.6,310.031,310.031,0,0,1,21.8-35.6q11.2-15.6,18.4-22-12,.4-23.8,1A161.069,161.069,0,0,0-1394,130a71.165,71.165,0,0,0-16.2,4.8q-6.6,3-8.2,8.2,0,.8-2,.8a4.441,4.441,0,0,1-2-.4q0-4.4.2-8.6t1-9.8q.8-5.2,1.4-9a32.156,32.156,0,0,1,2.6-8.2q1.6-4,4.2-4.2a28.866,28.866,0,0,1,7,.6q3.6.4,12.4,1.2t19.6,1.4q10.8.6,22,1.2t19.6.6q8.8,0,13-.4t11.8-1.2v7.6q-5.6,2-14.2,11.6t-16.8,25.8a209.679,209.679,0,0,0-14.4,38.6q-6.2,22.4-6.6,50-.4,32,6,57.4t18,42.8q11.6,17.4,28.2,26.6a74.232,74.232,0,0,0,36.6,9.2q20.4-.4,35.4-8.2t22.2-15.8q14.8-16,19-51.8t4.2-87.4q0-39.6-.8-62.4t-4-28q-.4-1.6-5.6-2.6a76,76,0,0,0-12-1.2q-6.8-.2-13.6-.2a89.066,89.066,0,0,0-10,.4q-3.2.4-4-2.2a17,17,0,0,1-.8-5,6.944,6.944,0,0,1,1.4-4,7.575,7.575,0,0,1,3.4-2.8q17.6.4,38.2,1.6t37.8,1.2q14,0,26.6-.6t25.8-1.4q3.6.8,3.6,5.6,0,5.2-3.6,6a29.3,29.3,0,0,1-8.6.4q-5-.4-10.2-.4a12.3,12.3,0,0,0-8.4,2.8q-2,4.8-4,19t-3.4,35.2q-1.4,21-2.4,48t-1,57.8q0,33.6.6,54.6t2.2,33.2q1.6,12.2,4,17.4t6,7.2q4.4,2,8.6,3.6a27.463,27.463,0,0,0,9.8,1.6q2.4,0,5.2-.2t2.8,1.8q0,7.6-10.8,7.6A45.456,45.456,0,0,1-1139.2,402.2Z" transform="translate(1990.9 -71.3)" fill="#00001f" stroke="#707070" stroke-width="1"/>
</svg>
